# xmcd CD database file
#
# Track frame offsets:
#	187
#	18792
#	42480
#
# Disc length: 812 seconds
#
# Revision: 2
# Processed by: cddbd v1.5.1PL2 Copyright (c) Steve Scherf et al.
# Submitted via: CDex 1.51
#
DISCID=1a032a03
DTITLE=CORVETTES - 瞳を僕にちかづけて
DYEAR=1993
DGENRE=JPop
TTITLE0=瞳を僕にちかづけて
TTITLE1=もう二度と離さない
TTITLE2=瞳を僕にちかづけて（オリジナル・カラオケ）
EXTD=YEAR: 1993
EXTT0=
EXTT1=
EXTT2=
PLAYORDER=
